<?xml version="1.0" standalone="no"?><!DOCTYPE svg PUBLIC "-//W3C//DTD SVG 1.1//EN" "http://www.w3.org/Graphics/SVG/1.1/DTD/svg11.dtd"><svg t="1592921004150" class="icon" viewBox="0 0 1143 1024" version="1.1" xmlns="http://www.w3.org/2000/svg" p-id="2806" xmlns:xlink="http://www.w3.org/1999/xlink" width="223.2421875" height="200"><defs><style type="text/css"></style></defs><path d="M199.66794 125.098296m-125.098296 0a125.098296 125.098296 0 1 0 250.196592 0 125.098296 125.098296 0 1 0-250.196592 0Z" p-id="2807"></path><path d="M520.943109 276.100785H49.613165A50.860671 50.860671 0 0 0 0.016114 328.225075l2.527238 364.23822a31.590479 31.590479 0 0 0 5.054476 16.742954c26.536002 41.067622 49.912957 18.638382 61.285529 1.579524a4.106762 4.106762 0 0 1 7.89762 2.527238l1.895429 243.878497a51.49248 51.49248 0 0 0 31.590479 47.385718 221.133352 221.133352 0 0 0 176.906681 1.895429 50.228861 50.228861 0 0 0 28.747336-44.85848c2.527238-78.344387 9.793048-295.370977 14.847525-415.414797 6.949905-164.586395 198.072302-179.749824 212.919827-231.874114a29.06324 29.06324 0 0 0-22.745145-38.224479z" p-id="2808"></path><path d="M1143.591446 58.758291H374.679192v148.791155s268.203165-2.527238 217.342494 90.980579-217.342494 222.712876-217.342494 222.712875v84.346579h341.808981s-146.895726 235.980877-157.952394 254.619259c-27.799621 47.385718 5.054477 98.246389 53.703814 54.335623a1113.248473 1113.248473 0 0 0 104.24858-148.791155s14.215715 31.590479 23.376954 50.544766a35.065431 35.065431 0 0 0 63.180958 0 456.482419 456.482419 0 0 0 20.849716-49.912956s63.180958 120.675629 74.869434 138.682202c31.590479 55.283338 100.141818 26.851907 57.178767-52.440195s-149.73887-246.405735-149.738869-246.405735H1143.591446z m-34.749526 132.680011h-38.856289l-137.418583 208.49716-161.111442-94.771437-137.734488 152.266108-28.431431-30.010955 160.795538-177.222586 157.952394 94.771437 131.100487-199.335922h53.387909z" p-id="2809"></path></svg>