<?xml version="1.0" standalone="no"?><!DOCTYPE svg PUBLIC "-//W3C//DTD SVG 1.1//EN" "http://www.w3.org/Graphics/SVG/1.1/DTD/svg11.dtd"><svg t="1592922546876" class="icon" viewBox="0 0 1024 1024" version="1.1" xmlns="http://www.w3.org/2000/svg" p-id="9609" xmlns:xlink="http://www.w3.org/1999/xlink" width="200" height="200"><defs><style type="text/css"></style></defs><path d="M848 767.968 656 767.968C622.08 767.968 592 739.328 592 703.968L592 671.968 304 671.968 304 959.968C304 995.296 275.36 1023.968 240 1023.968L176 1023.968C140.64 1023.968 112 995.296 112 959.968L112 63.968C112 28.608 140.64-0.032 176-0.032L240-0.032C275.36-0.032 304 28.608 304 63.968L304 95.968 592 95.968C627.36 95.968 656 124.64 656 159.968L656 223.968 848 223.968C883.36 223.968 912 252.64 912 287.968L912 703.968C912 739.328 883.36 767.968 848 767.968ZM240 671.968 240 607.968 240 159.968 240 95.968C240 78.304 225.664 63.968 208 63.968 190.336 63.968 176 78.304 176 95.968L176 927.968C176 945.632 190.336 959.968 208 959.968 225.664 959.968 240 945.632 240 927.968L240 671.968ZM592 191.968C592 174.304 577.664 159.968 560 159.968L304 159.968C304 176.992 304 174.304 304 191.968L304 575.968C304 593.632 304 589.056 304 607.968L560 607.968C577.664 607.968 592 593.632 592 575.968L592 191.968ZM848 319.968C848 302.272 833.664 287.968 816 287.968L656 287.968C656 304.992 656 302.272 656 319.968L656 607.968 656 698.496C656 697.984 656 699.264 656 703.968L816 703.968C833.664 703.968 848 721.632 848 703.968L848 319.968Z" p-id="9610"></path></svg>